/* XPM */
static char *player_xpm[] = {
"8 8 3 1",
". c None",            // Transparent
"r c #FF0300",         // Red
"g c #A0A0A0",          // Gray background color (match your map color)
"gggggggg",
"ggrrrrgg",
"grrrrrrg",
"grrrrrrg",
"grrrrrrg",
"grrrrrrg",
"ggrrrrgg",
"gggggggg"
};
