/* XPM */
static char *_dedb282ad9a4b34ecbcf4dc6b7e039dnAxfniDh2q5F092L[] = {
/* columns rows colors chars-per-pixel */
"8 8 3 1 ",
"  c #FF0300",
". c gray92",
"X c white",
/* pixels */
".X.X.X.X",
"X.    X.",
".      X",
"X      .",
".      X",
"X      .",
".X    .X",
"X.X.X.X."
};
