/* XPM */
static char *_d1f5061f3af497dc98e5b6ca3763f5cc8EwYQuMU2TvUb3E[] = {
/* columns rows colors chars-per-pixel */
"64 64 14 1 ",
"  c #001133",
". c #00266A",
"X c #0F5397",
"o c #13579B",
"O c #175B9F",
"+ c #185CA0",
"@ c #1D61A5",
"# c #2165A9",
"$ c #2468AC",
"% c #296DB1",
"& c #2E72B6",
"* c #3074B8",
"= c #3478BC",
"- c #61A5E9",
/* pixels */
"                                                                ",
" --$------------------------*  --------------------$---+------. ",
" -%%%%%%%%%$%%O%%%%%%%%%%%%%.  -+++++++++%++++++++++++++++++++@ ",
" -%%%%%%%%%%%%%%%%%%@%%%%%%%.  -++++++++++++++++++++++++++++*+. ",
" -%%%%$%%%%%%%%%%%%%%%%%%%%%.  -+++++++++++++++@+++&++++++++++. ",
" -%%%%%%%%%%%%%%%%%%%%%%%%&%.  -++++++++++++++++++++++++++++++. ",
" -%%%%%%%%%%%%%%%%%%%%%%%%%%.  -++++++++++++++++++++++++++++++. ",
" -%%%%%%@%%%%%%O%%%%%%%%O%%%.  -++++&++++++++++++*++++++++%+++. ",
" ..*.........................  .....X.......................... ",
"                                                                ",
"                                                                ",
" O--o---------------.  ------------------------.  ------------. ",
" -$$$$$$$$$$$$$$$$$$.  -%%%%%%%%%%%%%%%%%%%%%%%.  -OOOOOOOOOOO. ",
" -$o$$$$$$$$$$$$$$$$.  -%%%%%%%%%%%$%%%%%%%%%%%.  -OOOOOOOO@OOO ",
" -$#$$$$$$$o$$$$$$$X.  -%%%%%%%%%%%%%*%%%%%@%%%.  -OOOOOOOOOOO. ",
" $$$$$$$$$$$$$$$$$$$.  -%%%%%%%%%%%%%%%%%%%%%%%.  -OOOOOO$OOOO. ",
" -$$$$$$$$$$$$$$$$$$.  -%*%%%%%%%%%%=@%%%%%%%%%.  -OOOOO$OOOOO. ",
" -$$$$$$$$$$$$$$$$$$.  -%%%%%%%%%%%%%%%%X%%%%%%.  -OOOOO%OOOOo. ",
" ............#.......  ..............%..........  ............. ",
"                                                                ",
"                                                                ",
" ----&--*------------#----------.  ----------+----------%-----. ",
" -$$$$$$$$$$$$$$$$$$$$$$$$$$+$$$.  -######o############%######. ",
" -$$$$$$$$$$$$$$$O$$$$$$$$$$$$$$.  -#%########################. ",
" -$$$$@$$$$$$$$$$$$$$$$$$$$$$$$$.  -###################+######. ",
" -$$$$$$$$$$$$$$O$$$$$$$$$$$$$&$.  O########################X#. ",
" -$$$#$$$$$$$$$$$$$$$$$$$$$$$$$$.  -###############*##########. ",
" -$$$$$$$$$$$$$$$$@$$$$$$$$$$$O$.  -####*#####################. ",
" .o.......&......................  ..........................#. ",
"                                                                ",
"                                                                ",
" -----------------.  ------------------=--.  -----------------. ",
" -################.  -OOOOOOOOO+OOOOOOOOOO.  -++@@@@@@%O+@@@++$ ",
" -################.  -OOOOOOOOOOOOOOO&OOOO.  -++@@@@@@+++@@@++. ",
" -######$#########.  -OOOOOOOOOOOOOOOOOOOOO  -++++++++++++@@++% ",
" -######*#########.  -OOOOOOOOOOOOOOO=OOOO.  -+++++++++++++@++. ",
" -@####*#######@##.  -OOOOOOOOOOOOOO@OOOOO.  -@@+%++++++$+@@++. ",
" @###&#########@##.  -OOOOOOOOOOOOOOOOOOOO.  -@@@@++++++#+@@++. ",
" O........%........  .............*....O...  .................. ",
"                                                                ",
"                                                                ",
" ------@-----------------.  -----------------------------*----. ",
" -$$$$@$$$$$$$$$$$$$$$$$$.  -+++o+++++++++++++++++++++++++++++. ",
" -$$$$$$$$$$$$$$$$$$$$$$o.  -+++++++++++++++$++++++++++++++++O. ",
" -$$$$$$$$$$$&$$$$$$$$$$$.  -++++++++++o++++++++++++++++++++++. ",
" -$$$$$$$$$$$$$$$$$$$$$$$.  -++++++++&++++++++++++++++++++++++. ",
" -$$@$$$$$$$$$$$+$$$$$$$$.  &&++++++++++++++++++++++++++++++++. ",
" *$$$$$$$$$$O$$$$$$$$$$$$.  *+++++++o++++++++++++&++++++++++++. ",
" .....................+...  $............O..................... ",
"                                                                ",
"                                                                ",
" -----------.  ---&+O$-------------@------.  ---------$-------. ",
" -%%%%%%%%%%#  -%%=%%%%X%%%%%*%%%%%%%%%%%@.  -++++@@++++@@@@+@. ",
" -%%%%%%%%%%.  -%%%%%%%%%%%%%%%%%%%%%%%%%%.  -+++@@@++++o@@@+@. ",
" -%%%%%%%%%%.  -%%%%%%%%%%%%%%%%%%%%%%%%%%.  -++++@@@@+++++%++. ",
" -%%%%%%%%%%.  -%%%%%%%%%%%%%%%$%%%%%%%%%%.  -+#++@@@+++++++++. ",
" -%o%%%%%&%%*  -%%%%%%%%%%%%%%%%%%%%%%%%%%.  -+++++++++++++@++. ",
" -%%@%%%%%%%.  -%%%%%%%%%%%%o%%&%%%%%%%%%%.  -++++@+++++++@@++. ",
" ............  ............................  ......+..+........ ",
"                                                                ",
"                                                                ",
"                                                                ",
"                                                                ",
"                                                                "
};
