/* XPM */
static char *_1f7986244844ce58a95c1522d219121QQibOy79UQwvRgl9[] = {
/* columns rows colors chars-per-pixel */
"64 64 23 1 ",
"  c #1A0A33",
". c #26006A",
"X c #532097",
"o c #552299",
"O c #57249B",
"+ c #58259C",
"@ c #5B289F",
"# c #5E2BA2",
"$ c #5F2CA3",
"% c #602DA4",
"& c #6330A7",
"* c #6431A8",
"= c #6734AB",
"- c #6A37AE",
"; c #6B38AF",
": c #6C39B0",
"> c #6F3CB3",
", c #713EB5",
"< c #7340B7",
"1 c #7542B9",
"2 c #7744BB",
"3 c #7845BC",
"4 c #A572E9",
/* pixels */
"                                                                ",
" 44&44444444444444444444444444.  4444444444>-44444444444444444. ",
" 4%%%%%%%%%%%%%%%%%%%%%%%%&%%%.  4:::::::::%::::::::::::::::::. ",
" 4%%%%%%%%%%%%%%%%%%%%3%%%%%%%.  4::::::::::::::::::::::::::::. ",
" 4%%%%%%%%%%%%%%%%%%%%%*%%%%%%>  4::::::::::::::$:::::::::::::. ",
" 4%%%%%%%%3%%%%%%%%%%%%%%%%%%%.  4:::::::::X::::::::::::::::::. ",
" 4%%%%%%%%%%%%%%%%%%%%O%%%%%%%.  4:::::o::@:X:::::::::::::::::. ",
" 4%%%o%%%%%%%%%%%%%%%%%%%%%%%%.  4::&::::::::::::::::::::::::%. ",
" .............................o  ..........o...............#... ",
"                                                                ",
"                                                                ",
" 44444413444444444.  +44++4444444444444444.  44444444444444444. ",
" 4&&&&&&&&&&&&&&&&.  4,,,,,,,,,,,,,,,,,,,,.  4%%%%%%%%;%%%%%%%+ ",
" 4&&&&&&&&&&&&&&X&.  4,,,,,,,,,,,,,,+,,,,,,  4%%%%%%%%%%%%%%%%. ",
" 4&&&&&&&&&&&&&&&&.  4,,,,,,,,,,,,,,,,,,,,.  4%%%%-%%%,%%%%X%%+ ",
" 4&&&&&&&&&&&&&&&&.  4,,,,,,,,,,,,,,,,,,,,.  4%%%%%%%%%%%%%3%%. ",
" 4&&&&&&&&&&&&&&&&.  4o,,,,,,,,-,,,,,,,,,,.  4%%%%%%%%%%%%%%%%. ",
" 4&&&&&&&&*&&&&&&&=  4,,,,,,,,,,,,&,,,,,,,.  4%%%%%%%%%%%%%%%%. ",
" .<................  ..............#.......  .o................ ",
"                                                                ",
"                                                                ",
" 414444444,44444444444444.  4444444444444444444*4444444444444$. ",
" 4#,,,,,,,,,,#,&,,,,,,,,,.  4,,,,,,,,,,,,,,,,,,,,,,,,,,,,,,,,,. ",
" 4,,,=#,,,,1,,,,,,,,,,,,,.  4,,,,,,,,,,,,,,,,,,,,3,,,,,,,,,,,,. ",
" 4,,,,,,@,,,,,,,,,,,,,,,,.  4,,,=,,,,,,,,,,,,,,,,,,,,,,,,,,,,,. ",
" 4,,,,,,,,,,,,,,,,,,,,,,,.  4,,,,,3,,,,,,,,,,,,,,,,,,,,,,,,,,,. ",
" 4,,,,,,>,,,,,,,,,,,,,,,,.  4,,,,,,,,,,,,,,,,,,,,,1,,,,,,,,,,,* ",
" 4,,,,,,,,,,,,,,,,,,,,,,,.  *,,,,,,,,,,,,,,,,,,,,,,,,%,,:,,,,,. ",
" .........................  ................................... ",
"                                                                ",
"                                                                ",
" 44444444444.  444,44444444444444444X44444.  44444444444444444. ",
" 4,,,,,,,,<,.  4,,,,,,,,,,,,,,,,,,,,,,,@,,.  &++++++++++++++++. ",
" 4,%,,<,,,,,.  4,,,,,,,,,,,,,,,,,,,,,,,,,,.  4++++++++++++:+++. ",
" 1,,,,,,,,,,.  4,,,,,,,,,,,,,,,,1,,,,,,,,,.  X++++++++++++++++. ",
" 4,,,,,,,,,,.  +,,,,,,=,,,,$,,,,,,,,,,,,,,.  4++-+++++++++++++. ",
" 4,,,,,,,,,,.  4,,,,,*,,,,,,,,,,,,,,,,,,,,.  4+-++++++++++++++* ",
" 4,,,,%,,,,X.  4,,,,,,,,,,,,,,,,,,,,,,,,,,.  4++++++++++++++++. ",
" .........+..  .....+.$...............o....  ...2...*.......... ",
"                                                                ",
"                                                                ",
" 4444444444444444444444444444444.  44:4%4444:44444444444444444. ",
" 4::*::::::::::::::::2::::::::::.  4;;;;;;;;+;;;;;;;;;;;;;;;;;. ",
" 4#:::::::::::::::::::::::::%:::.  4+;;;;;;;;;;%;;;;;;;;;;;;;;. ",
" 4:::::::::::::@1:::::::::::::::.  4;;;;;&;;;,,;;;;;;;;;;;;;;;. ",
" 4::::::::::::::::::::::::::::::.  4;;;>%;;;;;;;;@;;;;;;;;;;;;. ",
" 4:1::::@:::::::::::::::::::::::.  4;;;;;;;;;;;;;;;;;;;;;;;;;;. ",
" 43::::::::::::::::::::#::::::::.  4;;;;;;;;;;;;;;;;;;;;;;;;;;. ",
" .....................2........-.  ............................ ",
"                                                                ",
"                                                                ",
" 44444444444-4424444.  4444444444444444444.  444&4444444444444. ",
" 4%%%%%%%%%%%%%%%%%%.  4****==***:==******.  4################. ",
" 4%%%%%%%%%%%%%%%%%%.  =****===**===******.  4###############>. ",
" 4%%%%%%%%%%%%%%%%%%.  4***===****==***3**.  4############+###. ",
" 4%%&:%%%%%%%%%%%<%%.  4***===****===*****.  4################. ",
" 4%%%%%%%%%%%%%%%%%%.  4******2***********.  4##+#######%#####. ",
" 4%%%%%%%%%%%%%%%%%%.  4**X******-***X****.  4#############-##. ",
" .............-..-..-  ...............-....  ........#......... ",
"                                                                ",
"                                                                ",
"                                                                ",
"                                                                ",
"                                                                "
};
