/* XPM */
static char *_6bd601d8b144777fc9a1c9a17b7a25adD8HVUOIhJpYQIOA[] = {
/* columns rows colors chars-per-pixel */
"64 64 31 1 ",
"  c #042600",
". c #1A2A0A",
"X c #315320",
"o c #335522",
"O c #345623",
"+ c #375926",
"@ c #385A27",
"# c #395B28",
"$ c #3A5C29",
"% c #3C5E2B",
"& c #3D5F2C",
"* c #3F612E",
"= c #40622F",
"- c #416330",
"; c #426431",
": c #446633",
"> c #456734",
", c #466835",
"< c #486A37",
"1 c #496B38",
"2 c #4A6C39",
"3 c #4C6E3B",
"4 c #4D6F3C",
"5 c #4E703D",
"6 c #50723F",
"7 c #517340",
"8 c #537542",
"9 c #547643",
"0 c #557744",
"q c #567845",
"w c #83A572",
/* pixels */
"................................................................",
".owwwwwwwwwwwwwwwwwwww ..wwwwwww9wwwwwwwww ..wwwwwwwwwwwwwwwww .",
".w1q;;;;;;;;<;;;;;;;;; ..w################ ..w1111111111111111 .",
".w;;;;;;;;;;;;;+;;;;;;#..w########,####### ..w11111116qO111111 .",
".w;;;;;;;;;;;,;;;;;;;; ..w####9########### ..w1111111111111111 .",
".w;;;;;;;;;;;;;;;;;;;; ..w###$##%######### ..wq111111111111111 .",
".w;;;;;;;;;;;;;;;;;;;; ..0################ ..w11111111,1111111 .",
".w;;;;;,;;;;;;;;;;;;;;$..w################ ..w111,111111111111 .",
".                      ..       5q         ..           5      .",
"................................................................",
"................................................................",
".wwwwwwwwwwwwww ..wwwwwwwwww*wwwwwww:wwwww ..wwwwwwwwwwwwwwwww .",
".q$$;$$$$$$8$$$ ..w;;;;;;;;;;;;;;;;;;;;;;; ..w6666676666666666 .",
".7$$$$,$$$$$$$$ ..w;;;;;5;;;;;;;;;;;;;;;9; ..w6666866666666666 .",
".w$$$$$$$$$$$$$ ..w;;5;;;;;;;;;;;;;;:;;;;; ..w;6o6666666666666 .",
".w$$$$$$$$$$$$$ ..w;;;;;;;;;;;o;;;;;;;;;;; ..w66666666666*66<6 .",
".o$$$$$$$$$$$$$ ..w;;;;;;;;;;;;;;;;;#;;;;;7..w6666666666666666 .",
".w$$$$$$$$$$$$$ ..w;;;;;;;;;;;;;;;;;;;;;;; ..w6666666666666666 .",
".               ..                  &      ..             0    .",
"................................................................",
"................................................................",
".wwwwwwwwwwwwwwwwwwwwwwwwwww ..wwwwwwwwwwwwwwwwwwwwwwwwwwwwwww .",
".555555555555555555555555555 ..w33333,333330333333333333333333 .",
".w555555555555555555q5555555 ..w33333333&3333*3393333333333333 .",
".w5555555555555555555O555555 ..w333333333333333333633333333333 .",
".w55555555555555555555555555 ..w33333333333333333333+333333333 .",
".w555555255555555o5555525555 ..w33333333433333333+333333333333 .",
".w555555555555545555555555@5 ..w333333333333>333333333333333o3 .",
".                   O     18 ..             8                  .",
"................................................................",
"................................................................",
".wwwwwwwwwwww8www,ww ..wwwwwwwwwwwwwwwwwww ..wwwwwwwwwwwwwwwww .",
".w5555555555555o5555 ..w------------------ ..w;;;;2;1;;;;;;;;; .",
".w55555555565555555: ..w----$-----------8- ..w;;;;;;;;;;;;;-;; .",
".w555555555556555;55 ..w------------------ ..w;;;;;;;:;;;;::;; .",
".w555555555555555555 ..w---------------q-- ..w;*;;;;;;;;;;;;;; .",
".w555555555555555155 ..w----&-----;------- ..w>;;;;;;;;;;;;;;; .",
".w555855555555555555 ..w--=--------------- ..w;;;;;;O;;;;;;;;; .",
".      1             ..                6   ..                  .",
"................................................................",
"................................................................",
".wwwww3wwww*wwwwwwwwwwwww ..wwwww$wwwwwwwww;w6wwwwwwwwwwwwwwww .",
".w<<<<<<<<<<<<<<<<<<<<9<< ..w****5***************@@**,******** .",
".w<<<<,<<<<<<<<<<<<<$<<<< ..w********************************* .",
".@<<<<<<<<<<<<<<<<<<<<<%< ..w***********************,********* .",
".w<<<<<<<o<<<<<<<<<<<<<<< ..w********************************* .",
".w<<<<<<<<<<<<<<<<<<<<<<, ..w*;****8************************** .",
".w<<<<<<<<<<<<<<<<<<<<<<< ..w********************O*******9**** .",
".                         ..              o                    .",
"................................................................",
"................................................................",
".wwwwwwwwwwwwwwwqw ..wwwwwwwwwwwwwwwwwwwww ..wwwwwww>9wwwwwwww .",
".w;;;;;;;;;;;;;;;; ..w&&&&=&&&&:&&&:&&&&&& ..w@@@@@@@@@@@@@@@@ .",
".w;;:;;;;8;;;;;;;;O..w&&&&&&&&&&&&&&&&&&&& ..w@@@@@@@@@@@@8@@@ .",
".>;;;;;;;;;;;;;;;; ..6&&&&&&&&&&&&&&&&&&&& ..w@@@@@@@@@X@@@@@@ .",
".%;;;;&;;;;;;;;;;; ..w&&o&3&&&&&&&&&&&&&&& ..w@@@@@@@@@@@@2@@@ .",
".w;;;;;;;;;;;;;;;; ..w&&&&&&&&&&&0&&&&&&,& ..w@@@@$@@@@@@@@@@@ .",
".w;;;;;;;;;;;;;;;; ..w&&&&&&&&&&&&&&&&&&&& ..w@@@@@@@@@@@@@@@@ .",
".  :               ..                      ..               *  .",
"................................................................",
"................................................................",
"................................................................",
"................................................................",
"................................................................"
};
