/* XPM */
static char *_18142bd8a4d4f369d4be7a6d85be2ebc9BMp1gxEZVi2Q1s[] = {
/* columns rows colors chars-per-pixel */
"64 64 15 1 ",
"  c #331111",
". c #6A0000",
"X c #970F0F",
"o c #991111",
"O c #9D1515",
"+ c #A21A1A",
"@ c #A51D1D",
"# c #A82020",
"$ c #AA2222",
"% c #AF2727",
"& c #B32B2B",
"* c #B62E2E",
"= c #BB3333",
"- c #BC3434",
"; c #E96161",
/* pixels */
"                                                                ",
" ;;;;;;;;;;;;;;;;;;;;;;;;;;;;;.  ;;;;;;;;;;;;;;;;*;;;;;;;;;;;;. ",
" ;%%%%%%%%%%%%%%%%%%%%%%%O$%%%.  ;++o+++++++++++++++++++++++++. ",
" ;%%%%%%%%%%%%%%%%%%%%%%%%%%%%.  ;+++++++++++@@+++++++++++++++. ",
" ;%%%%%%%O%%%%%%%%$%%%%%%%%o%%.  ;++++++++++++++++++++++++++++@ ",
" ;%%%%%%%%%%%%%%%%%%%$%%%%%%%%.  ;+++++++++++=++++++++++++++=@. ",
" ;%%%%%%%%%%%%%%%%%%%&%%%%%%%%.  ;++++++++++++++++++o@++++++o&. ",
" ;%%%%%%%%%%%%%%%=%%%o%%%%%+%%.  ;+++++++++++++++@++++++++++++. ",
" .....-........................  %............................. ",
"                                                                ",
"                                                                ",
" ;;;;;;;;;;;;;;.  ;;;;;;;-;;;;;;;;&;;;;;;;;@;;;.  ;;;;;;;;;;;;. ",
" ;$$$$$$$$$$$$$.  ;%%%%%%%%%%%%%%%%%%%%%%%%O%%%.  ;$$$@@$$$$@$. ",
" ;$$$$$$$$%$$$$.  ;%%%%%%%%%%%%%%%%%%%%%%%%%%O%.  ;$$$$*$$$$@$. ",
" ;@$$$$$$$$o@$$.  ;%%O%%%%%%%%%%%%%%%%%%%%%%%%%.  ;$$$$@X$$$@@. ",
" ;$$$$$$$$$$$$$.  ;%%%%%%%%%%%%%%%%%%%%%%*%%%%%@  ;=$$+@$$$$@=. ",
" ;$$$$$$$$*$$$$.  ;%%%%%%%%&%%%%%%%%%%%%%%%%%%%.  ;@$$$$$$$$$$. ",
" ;$$$$$$$$$$$$$.  ;%%%%%%%%%%%%%%%%%%%%%%%%%%%%.  ;@$$$$$$$$$$. ",
" ..............=  .........................=....  ............. ",
"                                                                ",
"                                                                ",
" ;*;;O;;;;;;;;;;;;;;;;;;;;;;;;.  ;;;;;o;;;;;;;%;;;;;;;;;;;;;;;. ",
" ;$$$$$$$$$$$$$$$$$$$$$$$$$$$$.  ;@@o@@@@@@@@@@@@@@@@@@@@@+@@@. ",
" ;$$$$$$$$$$$$$$$$$$$-$$$$$$$$.  +@@@@@@@@@@@@@@@@@@@@@@@@@@@@. ",
" ;$$%%$o$$$$$$$$$$o$$$$$$$$$$$.  &@@@@@@@@@@@@@@@@@@@@@@@@@@@@. ",
" ;$O$$$$$$$$$$$$$$$$$$$$$$$$$$.  ;@@@@@@@@@@@@@-@@@@@@@@@@@@@@+ ",
" ;$$$$$$$$$$$$$$$$$$$$$$$$$$$$.  %@@@@@@o@@@@@@@@@@@@@@@@@@@@@. ",
" ;$$$$$$$$$$$$$$$$$$$$$o$$$$$$o  ;@@@@@@@@@@@@@@@@+@@@@@@@@@@@. ",
" ..............................  .........*.................... ",
"                                                                ",
"                                                                ",
" ;;;;;;;;;;;;;;.  ;;%;&;;;;;;;;+;;;;;;;;;;;;;;;.  ;;;;;;;;;;;;. ",
" ;$$$$$@@@$$+$$.  ;&&&&&&&&&&o&&&&&&&&&&&&&&&&&.  ;OOOOOOOOOOO. ",
" ;$$$$$$@@$$$$@%  ;&&&&&&&&&=&&&&&&&&&&&&&&&&&&.  ;OOOOOOOOOOO. ",
" ;$+$$$$=@$$$$@.  ;$@&&&&&&&&&&&&&&&&&&&*&&&&&&.  ;OOOOOOOOOOO. ",
" ;$$$$$$@$$$$$@.  ;&&&&&&&&&&&&&&&&&&&o&&&&&&&&.  ;OOOO*OOOOOO. ",
" ;$$$$@$$%$$$$$.  ;&&&&&&&&&&&+&&&&&&&&&&@&&&&&.  ;OO%OOOOOOOO. ",
" ;$$$$@@$$$$$$$.  ;&&&&&&&&&&&&&&&&&&&&&&&&&&&&.  ;OOOOOoOOoOO. ",
" ...............  ...................X..........  ...........=. ",
"                                                                ",
"                                                                ",
" ;;;;;;;;@;;&;;;;;;;;;;;;;;;;;.  ;;;;;;;;;;;;;;;;;;;;;;;;;;%%;. ",
" ;$$$$$$$$$$$$$$$$$$$$$o$$$o$$.  ;++++++*++++++++@++++++++++++. ",
" ;$$$$$$$$$$$$$$$$$$$$$$$$$$$$.  ;++++@+++++++++++++++++++++++. ",
" ;$$$$$$$$$$$$&$$$&$$$$$$$$$$$.  =&+++++++++++++++++++++++++++. ",
" ;$$$$$$$$$$$$$$o$$$$$$$$@$$$$o  ;++++*++@+++++++++++++X++++++. ",
" ;$$$$$$$$$$$$$$%$$$$$$$$$$$$$.  ;++++++++++%+++@+++++++++++++. ",
" ;$$$$%$$$$$$$$$@$$$$$$%$$$$$$.  ;+++++++++%++++@+++++++++++++. ",
" .............................O  .....................$........ ",
"                                                                ",
"                                                                ",
" ;;;;;;;;;;;;;;.  ;;;;;;;;;;;;;;;;;;;;;;;+;;;;;.  &;;;;;;;;;;;. ",
" ;OX++++++++++=.  ;@@@@@@@@@@@@@@@@@@-@@@@@@@@+.  ;&&&&&+&@&&&. ",
" ;+O++++OO+O+++.  ;@@@@@@@@@@@@@@@@@@@@@@@O@@@@.  ;&&&&&&&&&&&. ",
" ;OO-+++OO++@@+.  ;@@*@@@@@@@@@@@@@@@@@@@@@@@@@.  ;&&&&&&&&&&&. ",
" ;OOO+++O++++++.  ;@&@@=@@@@@@@@@@@@@@@@@@+@@@@.  ;&&&&&&&&@&&. ",
" ;+++++++++++++.  ;@@@@*@@@@@@%@@@@@@@@@@@o@@@@.  ;&+&&&&&&&&&. ",
" ;++++++++O+++@.  ;@@@@@@@@@@@@*@@@@@@@@@@@@@@@.  ;&&&&&&&&&&&. ",
" ...............  ..............................  .....$....... ",
"                                                                ",
"                                                                ",
"                                                                ",
"                                                                ",
"                                                                "
};
